<svg version="1.0" xmlns="http://www.w3.org/2000/svg" width="365.000000ptpx" height="365.000000ptpx" viewBox="0 0 365.000000 365.000000" preserveAspectRatio="xMidYMid meet" transform="rotate(0) scale(1, 1)">

<g transform="translate(0.000000,365.000000) scale(0.100000,-0.100000)" fill="#f50000" stroke="none">
<path d="M1630 3344 c-88 -11 -251 -48 -329 -76 -228 -80 -430 -209 -598 -379&#xA;-220 -225 -361 -496 -419 -804 -26 -137 -26 -433 -1 -555 119 -568 502 -1006&#xA;1036 -1186 172 -58 248 -69 486 -68 241 0 307 10 500 76 443 151 809 522 960&#xA;971 58 174 69 254 69 487 0 185 -3 229 -22 313 -137 614 -590 1064 -1202 1197&#xA;-93 21 -389 35 -480 24z m455 -188 c544 -124 948 -531 1062 -1071 48 -226 32&#xA;-489 -43 -714 -118 -351 -388 -653 -724 -808 -679 -314 -1472 -34 -1810 637&#xA;-54 108 -106 267 -125 383 -19 119 -19 332 0 453 91 562 536 1015 1103 1125&#xA;122 23 425 20 537 -5z"/>
<path d="M1725 2949 c-177 -26 -334 -183 -366 -367 -22 -122 22 -273 105 -368&#xA;42 -49 125 -106 179 -123 l37 -13 0 -326 0 -327 -124 124 c-121 121 -130 134&#xA;-105 166 4 6 14 38 23 71 43 165 -6 329 -131 444 -60 55 -112 82 -198 105 -74&#xA;19 -122 19 -204 0 -176 -42 -309 -183 -341 -362 -25 -140 24 -290 128 -391&#xA;130 -127 293 -162 475 -101 l68 23 204 -204 205 -204 2 -216 3 -215 115 0 115&#xA;0 3 215 2 216 208 207 207 207 63 -26 c160 -64 337 -32 464 86 279 255 139&#xA;710 -236 772 -334 55 -607 -289 -480 -607 l24 -60 -125 -125 -125 -125 0 326&#xA;0 327 28 7 c82 20 207 127 252 216 90 175 58 378 -80 518 -107 109 -242 153&#xA;-395 130z"/>
</g>
</svg>